<svg xmlns="http://www.w3.org/2000/svg" width="256" height="256" viewBox="0 0 256 256">
    <circle cx="128" cy="128" r="120" fill="#007bff"/>
    <path d="M128 60c-37.5 0-68 30.5-68 68s30.5 68 68 68 68-30.5 68-68-30.5-68-68-68zm0 126c-31.9 0-58-26.1-58-58s26.1-58 58-58 58 26.1 58 58-26.1 58-58 58z" fill="#ffffff"/>
    <path d="M165.9 121.3l-31.4-6.3-14-28.4c-1.4-2.8-4.1-4.6-7.2-4.6-3.1 0-5.8 1.8-7.2 4.6l-14 28.4-31.4 6.3c-3 .6-5.5 2.9-6.3 5.9-.8 3 0 6.2 2.2 8.3l22.7 22.1-5.4 31.4c-.5 3 .7 6.1 3.2 7.9 2.5 1.8 5.8 2.1 8.5.6l28.1-14.8 28.1 14.8c1.2 .6 2.4 .9 3.7 .9 1.7 0 3.4-.5 4.9-1.5 2.5-1.8 3.7-4.9 3.2-7.9l-5.4-31.4 22.7-22.1c2.2-2.1 3-5.3 2.2-8.3-.8-3-3.3-5.3-6.3-5.9z" fill="#ffffff"/>
</svg>